<svg width="44" height="41" viewBox="0 0 44 41" fill="none" xmlns="http://www.w3.org/2000/svg">
<path fill-rule="evenodd" clip-rule="evenodd" d="M31.4663 35.6269C29.6613 36.2235 27.7318 36.5465 25.7268 36.5465C15.6348 36.5465 7.45355 28.3653 7.45355 18.2732C7.45355 11.1769 11.4987 5.02534 17.4088 1.9986C7.65121 2.86157 0 11.0564 0 21.0383C0 31.595 8.55797 40.153 19.1148 40.153C23.8237 40.153 28.1349 38.4503 31.4663 35.6269Z" fill="#EE5C88"/>
<path d="M26.5 2L28.8574 9.25532H36.4861L30.3143 13.7394L32.6717 20.9947L26.5 16.5106L20.3283 20.9947L22.6857 13.7394L16.5139 9.25532H24.1426L26.5 2Z" fill="#EE5C88"/>
</svg>
